<?xml version="1.0" encoding="utf-8"?>
<!-- Generator: Adobe Illustrator 19.1.0, SVG Export Plug-In . SVG Version: 6.00 Build 0)  -->
<svg version="1.1" id="Layer_1" xmlns="http://www.w3.org/2000/svg" xmlns:xlink="http://www.w3.org/1999/xlink" x="0px" y="0px"
	 viewBox="-289 381 32 32" style="enable-background:new -289 381 32 32;" xml:space="preserve" width="48" height="48">
<g>
	<g>
		<path d="M-276,416.4c0.3,0,0.5-0.2,0.5-0.5l0-9.6c0.1-0.1,0.3-0.1,0.5-0.2c0.2-0.1,0.4-0.1,0.5-0.1v9.9c0,0.3,0.2,0.5,0.5,0.5
			s0.5-0.2,0.5-0.5l0-10.1c0.2,0,0.3,0,0.5,0c0.2,0,0.4,0,0.5,0v10c0,0.3,0.2,0.5,0.5,0.5c0.3,0,0.5-0.2,0.5-0.5l0-9.9
			c0.4,0.1,0.8,0.2,1,0.3v9.6c0,0.3,0.2,0.5,0.5,0.5s0.5-0.2,0.5-0.5l0-9.8c0-1-0.4-1.8-1-2.5c-0.3-0.3-0.6-0.5-0.9-0.7l0.4-25.8
			c0-1.1-0.9-2-1.9-1.9c-0.5,0-1,0.2-1.3,0.6s-0.6,0.8-0.6,1.4l0.7,25.7c-0.5,0.2-0.9,0.4-1.3,0.8c-0.6,0.6-1,1.5-1,2.5v9.8
			C-276.5,416.2-276.3,416.4-276,416.4z"/>
	</g>
</g>
</svg>
